# xmcd
#
# Track frame offsets: 
#        150
#        15492
#        32572
#        54742
#        70370
#        88182
#        103427
#        117182
#        128810
#        144967
#        160412
#        173387
#        188872
#        206085
#        228412
#        246057
#        261455
#        275460
#        287275
#        303620
#
# Disc length: 4220 seconds
#
# Revision: 2
# Processed by: cddbd v1.5.2PL0 Copyright (c) Steve Scherf et al.
# Submitted via: ExactAudioCopy v1.0b6
#
DISCID=22107a14
DTITLE=Maranatha! Music - Double Praise 11 (1989)
DYEAR=1989
DGENRE=Praise and Worship
TTITLE0=Maranatha! Singers - He Is Exalted • Great Is The Lord
TTITLE1=Maranatha! Singers - We Choose The Fear Of The Lord
TTITLE2=Maranatha! Singers - Who May Ascend To The Hill Of The Lord
TTITLE3=Maranatha! Singers - We Sing Alleluia
TTITLE4=Maranatha! Singers - Soften My Heart
TTITLE5=Maranatha! Singers - The Battle Belongs To The Lord
TTITLE6=Maranatha! Singers - You Alone Are Holy
TTITLE7=Maranatha! Singers - Let Us Worship Lord Jehovah
TTITLE8=Maranatha! Singers - I Will Bless Thee As Long As I Live
TTITLE9=Maranatha! Singers - Holy, Holy Lord • Stand And Give Him Hono
TTITLE9=r
TTITLE10=Maranatha! Strings - Rejoice [Instrumental]
TTITLE11=Maranatha! Strings - He Is Exalted • Great Is The Lord [Instr
TTITLE11=umental]
TTITLE12=Maranatha! Strings - We Choose The Fear Of The Lord [Instrume
TTITLE12=ntal]
TTITLE13=Maranatha! Strings - Who May Ascend To The Hill Of The Lord •
TTITLE13=I Come By Faith [Instrumental]
TTITLE14=Maranatha! Strings - Soften My Heart [Instrumental]
TTITLE15=Maranatha! Strings - The Battle Belongs To The Lord [Instrume
TTITLE15=ntal]
TTITLE16=Maranatha! Strings - You Alone Are Holy [Instrumental]
TTITLE17=Maranatha! Strings - Let Us Worship Lord Jehovah [Instrumenta
TTITLE17=l]
TTITLE18=Maranatha! Strings - I Will Bless Thee As Long As I Live • I 
TTITLE18=Delight To Do Thy Will  [Instrumental]
TTITLE19=Maranatha! Strings - Rejoice [Instrumental]
EXTD=
EXTT0=Great Is The Lord
EXTT1=
EXTT2=I Come By Faith
EXTT3=
EXTT4=
EXTT5=
EXTT6=
EXTT7=
EXTT8=I Delight To Do Thy Will
EXTT9=Stand And Give Him Honor
EXTT10=
EXTT11=Great Is The Lord
EXTT12=
EXTT13=I Come By Faith
EXTT14=
EXTT15=
EXTT16=
EXTT17=
EXTT18=I Delight To Do Thy Will
EXTT19=
PLAYORDER=
